# xmcd CD database file
#
# Track frame offsets:
#	150
#	11206
#	22523
#	35391
#	46349
#	58564
#	68673
#	78496
#	89797
#	98200
#	109754
#	117814
#	129033
#	140636
#	155732
#	166306
#
# Disc length: 2391 seconds
#
# Revision: 0
# Processed by: cddbd v1.5.2PL0 Copyright (c) Steve Scherf et al.
# Submitted via: cdripper 1,0,39,0213
#
DISCID=ca095510
DTITLE=Varouis - Country Legends - Cowboy Boots
DYEAR=1900
DGENRE=Country
TTITLE0=01 Johnny Cash - Cry, Cry, Cry
TTITLE1=02 Charley Pride - Happiness Of Having You
TTITLE2=03 Frainkie Laine - Granada
TTITLE3=04 Lynn Anderson - Heaven's Just A Sin Away
TTITLE4=05 Tina Turner - If It's Alright With You
TTITLE5=06 Jimmie C. Newman - A Fallen Star
TTITLE6=07 Anne Murray - It's All Over
TTITLE7=08 Patsy Cline - Hungry For Love
TTITLE8=09 Jim Reeves - Wind Up Doll
TTITLE9=11 Webb Pierce - Slowly
TTITLE10=10 Jerry Lee Lewis - Your Cheatin' Heart
TTITLE11=12 Dave Dudley - Cowboy Boots
TTITLE12=13 Barbara Fairchild - Cheating Is
TTITLE13=14 Willie Nelson - Face Of A Fighter
TTITLE14=15 Faron Young - If You Ain't Lovin'
TTITLE15=16 Billie Jo Spears - It Coulda Been Me
EXTD=
EXTT0=
EXTT1=
EXTT2=
EXTT3=
EXTT4=
EXTT5=
EXTT6=
EXTT7=
EXTT8=
EXTT9=
EXTT10=
EXTT11=
EXTT12=
EXTT13=
EXTT14=
EXTT15=
PLAYORDER=
